<svg xmlns="http://www.w3.org/2000/svg" xmlns:xlink="http://www.w3.org/1999/xlink" viewBox="0 0 170.23 172.32"><defs><style>.cls-1{fill:url(#Dégradé_sans_nom_146);}.cls-2,.cls-6{fill:#312f42;}.cls-3{fill:#f6d25f;}.cls-4{font-size:7.03px;fill:#f5f9fb;}.cls-4,.cls-6{font-family:Insominia-Regular, Insominia;}.cls-5{fill:#f6f6f6;}.cls-6{font-size:18.07px;}</style><linearGradient id="Dégradé_sans_nom_146" x1="85.12" y1="-0.82" x2="85.12" y2="165.53" gradientUnits="userSpaceOnUse"><stop offset="0.01" stop-color="#e41131"/><stop offset="1" stop-color="#a6111e" stop-opacity="0.9"/></linearGradient></defs><g id="Calque_2" data-name="Calque 2"><g id="Presentation"><g id="Colored_Logo" data-name="Colored Logo"><g id="Ginko_logo" data-name="Ginko logo"><path class="cls-1" d="M88,162.07c5.51-40,34.26-68.67,72.75-68.67,1.18,0,2.36,0,3.53.09,0-.67,0-1.35,0-2,0-45.93-35.46-83.17-79.19-83.17S5.92,45.53,5.92,91.46c0,.73,0,1.45,0,2.17,1.76-.14,3.53-.23,5.33-.23,38.49,0,68.09,32.41,71.13,72.71.22,2.92.29,3.34.56,6.11a24.06,24.06,0,0,0,4.35,0C87.59,169.59,87.64,164.75,88,162.07Z"/><path class="cls-2" d="M79.31,169.89a72,72,0,0,0-72-72h0a159.22,159.22,0,0,1,69.86,67.93Z"/><path class="cls-2" d="M90.92,169.89a72,72,0,0,1,72-72h0a159.14,159.14,0,0,0-69.85,67.93Z"/><path class="cls-2" d="M4.18,73.19c6-38.54,40.92-68.57,81.45-68.33C125.79,5.1,160.09,35,166.06,73.2a86,86,0,0,1,4,15.24C173.09,40.77,133.34.28,85.65,0,37.57-.28-2.88,40.39.16,88.44A85.28,85.28,0,0,1,4.18,73.19Z"/></g><g id="Crest"><path class="cls-3" d="M85.07,73.32a16.16,16.16,0,1,0,16.15,16.15A16.15,16.15,0,0,0,85.07,73.32Zm0,26.81A10.66,10.66,0,1,1,95.72,89.47,10.66,10.66,0,0,1,85.07,100.13Z"/><circle class="cls-3" cx="85.07" cy="89.47" r="5.36"/><polygon class="cls-3" points="82.29 74.49 82.29 59.55 85.2 56.84 87.84 59.26 87.84 74.49 82.29 74.49"/><polygon class="cls-3" points="96.69 79.65 109.61 72.15 113.41 73.3 112.65 76.8 99.48 84.45 96.69 79.65"/><polygon class="cls-3" points="73.73 79.65 60.8 72.15 57.01 73.3 57.77 76.8 70.94 84.45 73.73 79.65"/><polygon class="cls-3" points="73.16 99.63 60.24 107.14 56.44 105.98 57.2 102.48 70.37 94.83 73.16 99.63"/><polygon class="cls-3" points="97.07 99.63 110 107.14 113.79 105.98 113.03 102.48 99.86 94.83 97.07 99.63"/><polygon class="cls-3" points="82.29 104.46 82.29 119.4 85.2 122.11 87.84 119.69 87.84 104.46 82.29 104.46"/></g><g id="Texte"><text class="cls-4" transform="translate(52.57 28.38) rotate(-24.7)">K</text><text class="cls-4" transform="translate(56.68 26.54) rotate(-21.2)">A</text><text class="cls-4" transform="translate(60.92 24.93) rotate(-17.45)">N</text><text class="cls-4" transform="matrix(0.97, -0.24, 0.24, 0.97, 65.81, 23.45)">T</text><text class="cls-4" transform="translate(69.69 22.51) rotate(-10.79)">O</text><text class="cls-4" transform="translate(74.21 21.7) rotate(-8.15)"> </text><text class="cls-4" transform="translate(76.57 21.37) rotate(-5.62)">P</text><text class="cls-4" transform="translate(80.82 20.99) rotate(-2.37)">R</text><text class="cls-4" transform="translate(85.14 20.85) rotate(0.81)">E</text><text class="cls-4" transform="matrix(1, 0.07, -0.07, 1, 89.27, 20.95)">F</text><text class="cls-4" transform="matrix(0.99, 0.12, -0.12, 0.99, 93.18, 21.25)">E</text><text class="cls-4" transform="matrix(0.98, 0.17, -0.17, 0.98, 97.18, 21.77)">C</text><text class="cls-4" transform="translate(101.33 22.54) rotate(13.17)">T</text><text class="cls-4" transform="translate(105.29 23.5) rotate(16.49)">U</text><text class="cls-4" transform="translate(109.76 24.87) rotate(19.93)">R</text><text class="cls-4" transform="translate(113.81 26.38) rotate(23.16)">E</text><path class="cls-5" d="M133.44,59.32a5.19,5.19,0,0,1-8.38,4.1c-8.66-6.72-23.49-15.08-43-14.15a64.55,64.55,0,0,0-36.84,14,5.2,5.2,0,0,1-8.41-4.08V47.73a5.22,5.22,0,0,1,2.11-4.19,77.37,77.37,0,0,1,92.42,0,5.2,5.2,0,0,1,2.12,4.19Z"/><text class="cls-6" transform="translate(44.37 58.34) rotate(-29.12)">n</text><text class="cls-6" transform="matrix(0.93, -0.36, 0.36, 0.93, 54.59, 52.88)">e</text><text class="cls-6" transform="translate(62.62 49.78) rotate(-14.39)">o</text><text class="cls-6" transform="translate(72.21 47.53) rotate(-9.07)"> </text><text class="cls-6" transform="translate(76.41 46.89) rotate(-5.32)">-</text><text class="cls-6" transform="translate(81.98 46.37) rotate(0.09)">t</text><text class="cls-6" transform="translate(90.2 46.41) rotate(6.74)">o</text><text class="cls-6" transform="translate(99.88 47.66) rotate(14)">k</text><text class="cls-6" transform="translate(109.37 50.17) rotate(21.25)">y</text><text class="cls-6" transform="translate(117.27 53.28) rotate(28.13)">o</text></g></g></g></g></svg>